<?xml version="1.0" standalone="no"?>
<!DOCTYPE svg PUBLIC "-//W3C//DTD SVG 20010904//EN"
 "http://www.w3.org/TR/2001/REC-SVG-20010904/DTD/svg10.dtd">
<svg version="1.0" xmlns="http://www.w3.org/2000/svg"
 width="1024.000000pt" height="1024.000000pt" viewBox="0 0 1024.000000 1024.000000"
 preserveAspectRatio="xMidYMid meet">
   <rect width="100%" height="100%" fill="#fff" />


<g transform="translate(0.000000,1024.000000) scale(0.100000,-0.100000)"
fill="#d4af37" 
stroke-width="3"

stroke="none">
<path d="M0 5120 l0 -5120 5120 0 5120 0 0 5120 0 5120 -5120 0 -5120 0 0
-5120z m5620 2887 c258 -45 462 -127 620 -247 160 -122 264 -292 305 -499 22
-107 16 -272 -14 -386 -42 -162 -163 -364 -320 -535 -131 -143 -442 -382 -595
-457 l-54 -26 -28 27 c-16 15 -44 37 -61 49 -18 12 -33 24 -33 27 0 3 32 23
72 45 101 54 347 219 445 298 160 128 277 286 379 507 99 216 99 398 -2 607
-102 213 -417 393 -783 448 -141 22 -333 28 -456 17 -116 -12 -431 -78 -525
-110 -347 -122 -648 -301 -856 -509 -183 -182 -396 -478 -489 -680 -28 -61
-39 -75 -77 -94 -23 -12 -74 -44 -111 -71 -37 -28 -70 -48 -74 -45 -18 19 110
309 187 422 15 22 35 56 45 75 10 19 27 46 37 60 11 14 45 59 76 101 152 203
279 339 440 473 121 101 228 169 390 250 301 151 576 235 902 276 126 16 422
4 580 -23z m1031 -413 c109 -82 145 -130 183 -244 67 -200 46 -498 -48 -693
-81 -169 -263 -400 -438 -557 -173 -155 -188 -170 -244 -246 -57 -78 -136
-147 -192 -171 -31 -13 -35 -12 -70 15 -20 16 -53 39 -72 51 -19 11 -29 21
-22 21 27 0 190 118 277 199 268 253 342 333 453 488 190 266 268 526 228 753
-26 143 -73 267 -162 419 -35 59 -36 63 -13 51 13 -7 67 -46 120 -86z m-1503
-87 c-9 -7 -30 -20 -47 -29 -17 -9 -40 -32 -52 -50 -20 -33 -20 -36 -14 -660
4 -466 3 -628 -6 -628 -6 0 -23 8 -37 18 -15 11 -53 29 -84 42 l-58 24 0 370
c-1 204 0 476 0 604 l1 232 -24 23 c-14 12 -36 30 -51 40 -48 33 -32 38 122
32 81 -3 170 -2 197 3 55 9 82 -1 53 -21z m422 8 c30 0 90 3 133 7 88 9 102
-3 40 -37 -20 -11 -46 -33 -57 -48 -21 -28 -21 -37 -21 -587 l0 -559 -70 -47
c-38 -25 -77 -53 -86 -61 -14 -12 -17 -12 -23 3 -4 9 -6 278 -6 598 0 320 0
593 0 608 0 33 -48 91 -90 108 -52 21 -33 30 48 22 42 -4 102 -7 132 -7z
m-960 -12 c0 -3 -14 -18 -30 -32 -23 -20 -33 -39 -40 -80 -6 -31 -10 -257 -10
-527 0 -261 -1 -474 -2 -474 -2 0 -41 14 -88 30 l-85 29 -1 485 c-1 534 3 502
-66 537 -21 11 -38 24 -38 29 0 6 69 10 180 10 99 0 180 -3 180 -7z m1495 -14
l60 -10 3 -362 c4 -415 15 -365 -105 -490 -64 -68 -73 -74 -79 -55 -3 12 -3
193 1 402 8 430 6 448 -53 504 l-37 35 75 -7 c41 -4 102 -11 135 -17z m971
-276 c74 -76 78 -90 78 -238 0 -111 -4 -145 -28 -235 -49 -184 -101 -290 -224
-459 -80 -109 -124 -154 -257 -260 -193 -155 -210 -165 -404 -237 l-64 -23 30
32 c16 17 40 47 52 65 12 18 68 71 124 119 150 129 357 339 408 413 163 238
236 480 227 748 -3 67 -1 122 3 122 5 0 29 -21 55 -47z m321 -431 c89 -119
174 -316 207 -476 21 -98 21 -328 1 -413 -28 -118 -102 -283 -158 -352 -57
-71 -179 -165 -272 -210 -110 -54 -287 -75 -415 -51 -68 13 -148 49 -200 91
-74 60 -170 219 -170 283 0 45 123 88 137 49 28 -82 61 -138 112 -186 71 -68
102 -84 191 -99 62 -11 83 -10 158 6 213 43 366 187 438 411 33 99 44 296 24
409 -24 136 -101 328 -165 412 -20 26 -22 34 -11 43 12 10 35 56 56 114 5 15
13 27 17 27 5 0 27 -26 50 -58z m-3512 -387 c171 -22 292 -55 493 -136 219
-87 674 -310 927 -454 105 -59 242 -136 305 -170 63 -34 169 -95 235 -134 283
-170 640 -323 879 -376 95 -21 274 -16 376 10 153 40 324 149 434 276 42 49
163 285 195 382 44 131 55 118 55 -66 1 -132 -1 -147 -25 -205 -42 -99 -89
-170 -163 -249 -119 -127 -259 -215 -442 -280 -74 -26 -88 -28 -239 -27 -170
1 -248 14 -424 69 -135 43 -459 186 -615 273 -44 24 -119 65 -166 90 -153 81
-214 114 -330 183 -280 165 -787 421 -998 505 -321 127 -499 167 -742 166
-154 -1 -235 -13 -346 -53 -118 -43 -185 -91 -350 -251 -128 -124 -187 -169
-202 -154 -10 10 40 129 86 205 53 88 170 209 257 266 194 127 471 172 800
130z m8 -345 c308 -59 712 -231 1262 -537 50 -28 151 -84 226 -126 75 -41 154
-86 175 -100 131 -82 574 -307 719 -365 269 -107 436 -144 645 -146 164 0 219
13 376 89 147 71 282 180 432 350 54 61 62 66 62 45 0 -62 -23 -160 -50 -215
-66 -138 -270 -287 -500 -367 -75 -26 -268 -58 -348 -58 -72 0 -242 23 -307
41 -73 19 -219 67 -305 99 -169 62 -864 413 -1060 535 -19 12 -57 33 -85 47
-27 14 -138 74 -245 133 -210 115 -361 190 -525 260 -131 56 -190 75 -395 131
-242 66 -409 71 -569 18 -94 -31 -235 -110 -296 -165 -126 -114 -219 -223
-263 -310 -23 -46 -54 -98 -69 -116 l-28 -32 1 102 c1 91 4 109 32 169 17 37
53 91 80 120 27 29 74 85 104 124 79 100 250 223 359 259 79 27 134 33 306 34
125 1 186 -4 266 -19z m3222 -70 c47 -11 92 -58 101 -108 10 -52 -4 -56 -87
-28 -82 28 -151 35 -217 22 -38 -7 -41 -6 -35 10 4 11 3 15 -4 11 -20 -12 -2
30 22 53 44 42 139 59 220 40z m-3360 -250 c125 -32 214 -80 299 -163 80 -77
135 -170 115 -193 -5 -7 -34 -24 -64 -38 -30 -14 -63 -34 -74 -45 -18 -18 -19
-18 -24 26 -11 101 -112 197 -252 240 -152 47 -253 39 -401 -32 -111 -53 -186
-128 -238 -238 -67 -138 -81 -277 -51 -481 25 -166 62 -275 130 -382 40 -62
39 -70 -9 -164 l-24 -44 -47 73 c-138 213 -236 536 -222 726 13 168 90 375
179 482 166 199 444 294 683 233z m2415 -161 c0 -89 3 -88 -69 -27 l-32 28 43
42 c24 24 46 42 51 40 4 -2 7 -39 7 -83z m-1722 -48 c4 -13 -65 -64 -78 -56
-5 3 -10 28 -10 55 l0 49 42 -19 c24 -10 44 -23 46 -29z m236 -117 c65 -31 75
-39 64 -51 -32 -39 -189 -130 -324 -187 -247 -106 -366 -173 -522 -295 -85
-67 -265 -314 -309 -425 -57 -142 -64 -177 -74 -356 -11 -195 -13 -207 -34
-234 -15 -19 -15 -19 -41 5 -53 49 -75 130 -75 270 1 141 29 261 93 389 81
161 135 234 275 371 160 157 254 220 521 352 200 99 284 148 311 181 19 22 29
21 115 -20z m319 -196 c37 -24 67 -48 67 -55 0 -12 -75 -64 -156 -107 -89 -48
-197 -136 -374 -306 -152 -146 -182 -180 -258 -294 -137 -208 -172 -305 -172
-477 0 -176 64 -350 168 -456 152 -154 382 -264 667 -319 112 -22 458 -30 593
-14 127 14 420 87 544 135 188 73 417 202 538 304 120 100 277 262 370 381
103 132 237 334 288 436 17 33 36 65 44 71 22 19 222 132 226 128 2 -2 -30
-72 -71 -157 -82 -169 -243 -418 -380 -588 -103 -128 -301 -322 -419 -411
-270 -201 -601 -343 -998 -426 -127 -26 -149 -28 -385 -28 -270 0 -369 13
-570 71 -309 89 -553 264 -657 469 -92 180 -130 361 -109 511 36 260 160 455
510 804 144 144 216 207 316 278 72 50 135 92 141 92 5 0 40 -19 77 -42z
m-691 -219 l17 -40 -52 -57 c-29 -31 -70 -79 -92 -107 -22 -27 -68 -83 -102
-122 -199 -232 -277 -425 -276 -688 0 -191 31 -291 150 -487 l53 -88 -29 0
c-36 0 -138 67 -187 123 -89 103 -144 286 -144 482 1 288 91 489 365 811 83
98 164 185 180 196 17 10 46 18 65 18 31 0 37 -4 52 -41z m1268 -99 c88 -52
80 12 80 -627 0 -313 3 -586 7 -608 5 -29 18 -51 55 -86 l49 -47 -196 2 c-107
0 -195 3 -195 6 0 3 18 16 41 30 22 14 45 34 51 45 7 12 11 191 13 531 l1 512
-200 7 c-111 4 -212 6 -226 4 l-25 -4 0 -507 c0 -498 0 -507 21 -535 11 -15
36 -38 55 -51 19 -13 35 -26 37 -30 1 -4 -88 -7 -198 -7 -110 0 -200 1 -200 2
0 2 18 14 39 29 22 14 44 39 50 56 7 20 11 227 11 599 0 318 5 580 10 593 7
21 125 107 167 123 10 4 13 -10 13 -55 l0 -59 46 -7 c60 -8 254 -8 333 0 l61
7 0 74 0 75 28 -24 c16 -12 48 -34 72 -48z m582 -424 c3 -78 4 -289 2 -471 -2
-197 0 -342 6 -360 7 -20 26 -40 55 -57 25 -15 45 -32 45 -38 0 -5 -22 -10
-48 -10 -27 0 -111 -3 -188 -6 l-139 -6 48 45 48 45 -7 474 c-4 260 -4 503 0
539 l7 67 83 -40 83 -41 5 -141z m-1628 -858 c4 -9 23 -29 42 -43 19 -14 34
-31 34 -37 0 -19 -97 -1 -150 28 -64 35 -90 63 -101 111 -11 47 -11 447 0 561
l8 82 74 73 74 72 5 -415 c3 -228 9 -423 14 -432z m-1142 -1078 c48 -96 87
-178 88 -182 0 -5 -15 -8 -34 -8 -30 0 -36 4 -46 35 l-12 35 -71 0 c-40 0 -82
3 -94 6 -22 6 -23 3 -37 -59 -6 -24 -11 -27 -41 -25 -19 1 -35 6 -35 12 0 5
33 77 74 160 41 83 79 164 85 179 6 16 17 27 24 25 6 -2 51 -82 99 -178z
m1799 113 c27 -58 120 -265 135 -298 3 -7 -10 -11 -31 -11 -32 0 -36 3 -46 38
l-10 38 -79 2 c-44 0 -86 1 -92 2 -7 1 -17 -16 -22 -36 -9 -36 -12 -38 -48
-38 -21 0 -38 2 -38 4 0 2 17 41 38 87 21 46 59 128 83 181 55 121 67 124 110
31z m851 29 c19 -21 54 -64 77 -95 24 -31 46 -57 50 -57 4 0 32 38 62 84 48
75 82 106 98 90 3 -3 8 -84 11 -180 l5 -174 -32 0 -33 0 0 94 c0 117 -6 138
-29 97 -27 -51 -80 -121 -90 -121 -6 0 -30 32 -55 70 -25 39 -49 70 -53 70 -5
0 -6 -49 -5 -108 l4 -108 -34 4 -33 4 -3 174 c-4 216 -1 223 60 156z m1100 19
c14 -11 60 -63 103 -115 43 -52 84 -97 92 -100 11 -5 13 13 7 108 l-7 113 32
-5 c31 -4 31 -5 31 -62 0 -31 3 -112 7 -178 l6 -122 -25 0 c-19 0 -46 25 -122
115 -53 63 -100 115 -104 115 -4 0 -5 -52 -4 -115 l4 -115 -31 0 -31 0 0 190
c0 105 4 190 9 190 4 0 19 -9 33 -19z m-4452 -71 l0 -80 90 0 90 0 0 75 0 75
33 0 c32 0 32 -1 32 -47 1 -27 2 -102 4 -168 1 -66 2 -126 2 -132 -1 -8 -15
-13 -37 -13 l-37 0 7 75 7 75 -96 0 -96 0 7 -77 c6 -70 6 -76 -10 -70 -10 4
-27 7 -39 7 -22 0 -22 2 -22 180 l0 180 33 0 32 0 0 -80z m1040 -99 l0 -179
-30 -4 c-17 -3 -32 -2 -35 0 -3 3 -5 86 -5 184 l0 178 35 0 35 0 0 -179z m422
163 c9 -3 31 -21 47 -40 51 -57 41 -138 -19 -169 -17 -9 -30 -19 -30 -24 0 -5
20 -31 45 -59 48 -53 46 -62 -16 -62 -24 0 -32 7 -50 43 -33 65 -47 77 -92 77
l-40 0 7 -55 6 -55 -35 0 -35 0 0 175 0 174 68 4 c65 3 109 0 144 -9z m388
-59 l0 -75 91 0 91 0 -7 75 -7 75 36 0 36 0 0 -142 c0 -79 3 -160 6 -180 l7
-38 -38 0 -37 0 4 73 3 72 -93 3 -92 3 0 -81 0 -81 -32 3 -32 3 0 183 -1 182
33 0 32 0 0 -75z m1194 46 c25 -21 46 -66 46 -98 0 -31 -34 -93 -50 -93 -24 0
-7 -50 31 -93 l40 -46 -25 -7 c-43 -10 -60 0 -99 59 -34 52 -41 57 -73 57
l-35 0 2 -57 c3 -61 -4 -70 -46 -59 l-25 6 0 178 0 177 108 -5 c74 -3 115 -10
126 -19z m1049 15 c42 -17 104 -89 118 -137 14 -47 -1 -97 -44 -146 -33 -37
-97 -72 -132 -73 -75 0 -153 54 -181 125 -56 147 94 292 239 231z m892 -43
c21 -32 44 -69 51 -82 12 -23 13 -23 53 39 22 34 43 71 46 81 5 14 16 19 46
19 21 0 39 -3 39 -7 0 -11 -102 -167 -127 -194 -23 -25 -24 -31 -18 -96 l7
-69 -37 4 -36 4 2 69 c2 64 0 73 -30 114 -30 41 -101 162 -101 171 0 2 15 4
34 4 29 0 37 -7 71 -57z"/>
<path d="M3262 2528 c-18 -39 -25 -64 -18 -66 6 -1 35 1 63 5 l53 8 -24 51
c-13 28 -29 54 -34 58 -7 4 -23 -20 -40 -56z"/>
<path d="M5130 2580 c-7 -25 -20 -61 -30 -81 l-19 -36 57 9 c31 5 58 10 59 12
2 2 -10 34 -26 72 l-29 68 -12 -44z"/>
<path d="M4000 2576 l0 -54 62 -7 c59 -7 63 -6 85 19 29 34 29 41 -2 71 -20
21 -34 25 -85 25 l-60 0 0 -54z"/>
<path d="M5564 2617 c-3 -8 -4 -32 -2 -53 l3 -39 58 -3 c69 -4 87 8 87 54 0
36 -4 39 -87 49 -42 5 -54 4 -59 -8z"/>
<path d="M6670 2623 c-28 -10 -59 -46 -70 -79 -22 -65 41 -144 115 -144 57 0
125 66 125 122 0 64 -103 126 -170 101z"/>
</g>
</svg>
